<?xml version="1.0" encoding="UTF-8"?>
<svg data-bbox="-0.01 0.014 138.074 157.379" viewBox="0 0 138.06 157.37" xmlns:xlink="http://www.w3.org/1999/xlink" xmlns="http://www.w3.org/2000/svg" data-type="ugc">
    <g>
        <defs>
            <linearGradient gradientUnits="userSpaceOnUse" y2="549.16" x2="1025.08" y1="549.16" x1="887.01" id="68e7aeb0-556e-49f8-a53c-3cdd47e6494c">
                <stop stop-color="#d1d7dc" offset="0"/>
                <stop stop-color="#d1d7dc" offset=".31"/>
                <stop stop-color="#d1d7dc" offset=".32"/>
                <stop stop-color="#d1d7dc" offset=".37"/>
                <stop stop-color="#c6ccd0" offset=".38"/>
                <stop stop-color="#afb2b5" offset=".43"/>
                <stop stop-color="#9b9d9f" offset=".48"/>
                <stop stop-color="#8c8d8e" offset=".54"/>
                <stop stop-color="#828283" offset=".61"/>
                <stop stop-color="#7c7c7c" offset=".71"/>
                <stop stop-color="#7a7a7a" offset="1"/>
            </linearGradient>
            <linearGradient xlink:href="#68e7aeb0-556e-49f8-a53c-3cdd47e6494c" y2="500.64" x2="963.01" y1="500.64" x1="951.72" id="e8a3a58a-5b28-45f8-a953-72bd14a71026"/>
            <linearGradient xlink:href="#68e7aeb0-556e-49f8-a53c-3cdd47e6494c" y2="529.68" x2="963.01" y1="529.68" x1="951.72" id="a4ede5b5-b239-4872-871e-d8818d6ef0b5"/>
            <linearGradient xlink:href="#68e7aeb0-556e-49f8-a53c-3cdd47e6494c" y2="548.32" x2="963.01" y1="548.32" x1="951.72" id="56abd4cd-4954-4cc4-830f-5e7399652d4f"/>
            <linearGradient xlink:href="#68e7aeb0-556e-49f8-a53c-3cdd47e6494c" y2="531.39" x2="963.01" y1="531.39" x1="951.72" id="d86666fc-ce11-4761-93a6-ba243a28af36"/>
            <linearGradient xlink:href="#68e7aeb0-556e-49f8-a53c-3cdd47e6494c" y2="554.21" x2="963.01" y1="554.21" x1="951.72" id="04d41a3b-6f73-4ea4-abbc-60ff75a4dc8b"/>
        </defs>
        <path transform="translate(-887.01 -470.47)" d="M1024.82 485.17V485C947.25 452.34 887 485 887 485c1.17 99.71 70 143.34 69.5 142.86 76.5-58.04 68.32-142.69 68.32-142.69zm-68.35 136.92c.45.44-63.74-40.24-64.83-133.21 0 0 56.2-30.42 128.57 0v.18s7.62 78.94-63.74 133.03z" fill="url(#68e7aeb0-556e-49f8-a53c-3cdd47e6494c)"/>
        <path d="M133.2 18.59s7.62 78.93-63.74 133c.45.44-63.74-40.24-64.83-133.21 0 0 56.2-30.42 128.57 0v.18" fill="#0b0204"/>
        <path transform="translate(-887.01 -470.47)" d="M944.59 515.61c5.18-5 9.65-5.88 9.65-5.88-10.77-9.79-14.82-24.05-14.82-24.05-.28 12.31 7.69 23.63 7.83 23.91C932 506 918.3 490 918 490c6.73 16.52 26.59 25.61 26.59 25.61z" fill="url(#e8a3a58a-5b28-45f8-a953-72bd14a71026)"/>
        <path transform="translate(-887.01 -470.47)" d="M925 526l-2.78-2.39c0 .21-.07.43-.1.64-.78 5.85 1.25 11 4.54 11.4 1.84.25 3.69-1 5.1-3.2l-2.07-2c-.62 1.85-1.9 3.07-3.18 2.9-1.59-.21-2.6-2.48-2.25-5A6.83 6.83 0 0 1 925 526z" fill="url(#a4ede5b5-b239-4872-871e-d8818d6ef0b5)"/>
        <path transform="translate(-887.01 -470.47)" d="M928.05 548.3h.07z" fill="url(#56abd4cd-4954-4cc4-830f-5e7399652d4f)"/>
        <path transform="translate(-887.01 -470.47)" d="M910.46 514.49s-2.58 21.4 8 29c-.21-.07-7.28 1.12-8 4.83-.07.14 9.49-5.21 17.52 0-1.04-.75-15.9-12.38-17.52-33.83z" fill="url(#d86666fc-ce11-4761-93a6-ba243a28af36)"/>
        <path transform="translate(-887.01 -470.47)" d="M994.16 490c-.28 0-14 15.95-29.23 19.58.14-.28 8.11-11.6 7.83-23.91 0 0-4.06 14.26-14.82 24.05 0 0 4.47.84 9.65 5.88 0 .01 19.86-9.08 26.57-25.6z" fill="url(#e8a3a58a-5b28-45f8-a953-72bd14a71026)"/>
        <path transform="translate(-887.01 -470.47)" d="M985.71 533.43c-1.29.17-2.56-1-3.18-2.9l-2.07 2c1.41 2.19 3.25 3.45 5.1 3.2 3.29-.44 5.32-5.55 4.53-11.4 0-.21-.06-.43-.1-.64l-2.78 2.31a6.62 6.62 0 0 1 .74 2.35c.35 2.65-.65 4.87-2.24 5.08z" fill="url(#a4ede5b5-b239-4872-871e-d8818d6ef0b5)"/>
        <path transform="translate(-887.01 -470.47)" d="M1006.75 497.43c-23.36 21.67-38.32 24.57-38.46 24.47a25 25 0 0 0-12.21-10.07s.07 13.41 0 17.22c0-3.81-.06-17.22-.06-17.22a25 25 0 0 0-12.18 10.07c-.14.14-15.1-2.8-38.46-24.47.14 0-1.17 6.15 4.61 12.72 6.23 7.09 16 12.87 20.14 17.63a51.35 51.35 0 0 1 3.77 4.64c-1.54 3.63-4.36 6-7.34 5.69-4.09-.41-6.93-5.62-6.34-11.65a15.4 15.4 0 0 1 1.45-5.21 12.37 12.37 0 0 0-2.72 8c0 5.95 3.71 10.77 8.29 10.77 3.35 0 6.22-2.57 7.54-6.27 2.64 4.17 4.85 9.83 5.15 18.77-.1.18-1 .37-2.9-6.81-4.66-5.22-6.8 1.4-5.22 2.89s7.28 4 8 5.59.56 2.15.56 2.15-10.91-7.37-16.5-3.64c-2 2.1.93 5 .93 5s22.2 10.5 25.8 28.54 5.55 24.76 5.55 24.76l-.07-69.51s-4.62-.11-7.12 6.83a3.36 3.36 0 0 0-1-1.72 2 2 0 0 0-1.54-.35 2.25 2.25 0 0 0-1.34 1.29 5.49 5.49 0 0 0-.59 3.3 4.81 4.81 0 0 0 .33 1.12c.06.13.12.26.19.39s.29.35.29.47a4 4 0 0 1 .69-2.52c.26-.31.63-.53.91-.83a2.27 2.27 0 0 0 .61-1.35.24.24 0 0 1 0-.16c.1-.14.7.42 1.23 1-.06.17-.12.33-.17.52-2.38 8.11-3.85 9.65-3.85 9.65s-3.29-1.75-3.36-2.38-.84-11 1.75-15.39 7.22-9.79 13-11.27c5.79 1.48 10.34 6.87 12.92 11.27s1.82 14.76 1.75 15.39-3.35 2.38-3.35 2.38-1.47-1.54-3.85-9.65c-.05-.19-.12-.35-.17-.52.53-.57 1.12-1.13 1.23-1a.32.32 0 0 1 0 .16 2.21 2.21 0 0 0 .61 1.35c.28.3.64.52.91.83a4 4 0 0 1 .69 2.52c0-.12.22-.35.29-.47s.13-.26.19-.39a4.79 4.79 0 0 0 .32-1.12 5.49 5.49 0 0 0-.58-3.3 2.3 2.3 0 0 0-1.34-1.29 2 2 0 0 0-1.54.35 3.23 3.23 0 0 0-1 1.72c-2.5-6.94-7.14-6.83-7.14-6.83l.07 69.51s1.79-6.71 5.42-24.75 25.74-28.53 25.74-28.53 2.93-2.94.93-5c-5.6-3.73-16.5 3.64-16.5 3.64s-.19-.56.55-2.15 6.44-4.1 8-5.59-.56-8.11-5.22-2.89c-1.86 7.18-2.8 7-2.89 6.81.3-8.94 2.5-14.6 5.15-18.77 1.32 3.7 4.19 6.27 7.53 6.27 4.59 0 8.3-4.82 8.3-10.77a12.37 12.37 0 0 0-2.73-8 15.18 15.18 0 0 1 1.45 5.21c.6 6-2.24 11.24-6.33 11.65-3 .29-5.8-2.06-7.34-5.69a53.11 53.11 0 0 1 3.76-4.64c4.2-4.76 13.91-10.54 20.14-17.63 5.83-6.59 4.53-12.74 4.67-12.74zm-72.8 35c.3.42.59.85.87 1.3-.28-.46-.57-.89-.82-1.31zm43.4 1.3c.29-.45.58-.88.88-1.3-.3.41-.59.84-.88 1.29z" fill="url(#04d41a3b-6f73-4ea4-abbc-60ff75a4dc8b)"/>
        <path transform="translate(-887.01 -470.47)" d="M984.12 548.3h-.07z" fill="url(#56abd4cd-4954-4cc4-830f-5e7399652d4f)"/>
        <path transform="translate(-887.01 -470.47)" d="M1001.71 514.49c-1.62 21.45-16.48 33.08-17.59 33.81 8-5.24 17.59.11 17.52 0-.7-3.71-7.76-4.9-8-4.83 10.66-7.58 8.07-28.98 8.07-28.98z" fill="url(#d86666fc-ce11-4761-93a6-ba243a28af36)"/>
    </g>
</svg>
